<?xml version="1.0" encoding="iso-8859-1"?>
<!-- Uploaded to: SVG Repo, www.svgrepo.com, Generator: SVG Repo Mixer Tools -->
<!DOCTYPE svg PUBLIC "-//W3C//DTD SVG 1.1//EN" "http://www.w3.org/Graphics/SVG/1.1/DTD/svg11.dtd">
<svg fill="#000000" height="800px" width="800px" version="1.1" id="Capa_1" xmlns="http://www.w3.org/2000/svg" xmlns:xlink="http://www.w3.org/1999/xlink" 
	 viewBox="0 0 274.359 274.359" xml:space="preserve">
<g>
	<polygon points="112.547,193.338 189.496,96.326 121.505,76.654 73.794,168.075 	"/>
	<path d="M245.533,98.092c-6.493-5.149-15.926-4.061-21.073,2.431L119.064,233.398l-84.465-55.063l78.524-150.462
		c3.833-7.345,0.986-16.405-6.357-20.238c-7.349-3.837-16.408-0.983-20.238,6.357L1.704,176.526
		c-3.573,6.847-1.364,15.288,5.106,19.506l107.321,69.962c6.49,4.231,15.129,2.824,19.944-3.244l113.889-143.585
		C253.112,112.675,252.023,103.24,245.533,98.092z"/>
	<path d="M259.359,158.702c-8.284,0-15,23.716-15,32c0,8.284,6.716,15,15,15c8.284,0,15-6.716,15-15
		C274.359,182.417,267.643,158.702,259.359,158.702z"/>
</g>
</svg>